<svg width="16" height="16" viewBox="0 0 16 16" fill="none" xmlns="http://www.w3.org/2000/svg">
<path d="M8.93751 7.53125H7.0625C6.80341 7.53125 6.59375 7.74091 6.59375 8V12.2188H5.65625C5.47863 12.2188 5.31659 12.319 5.23694 12.4778C5.15775 12.6367 5.17469 12.8267 5.28134 12.9686L7.6251 15.8123C7.71344 15.9304 7.8526 16 8.00001 16C8.14741 16 8.28657 15.9304 8.37491 15.8123L10.7187 12.9686C10.8253 12.8267 10.8423 12.6367 10.7631 12.4778C10.6834 12.319 10.5214 12.2188 10.3438 12.2188H9.40626V8C9.40626 7.74091 9.1966 7.53125 8.93751 7.53125Z" fill="white"/>
<path d="M13.1091 4.71922C12.9164 3.77531 12.1496 3.03647 11.1577 2.87947C10.7484 1.23197 9.25106 0 7.53125 0C5.81509 0 4.33422 1.21366 3.91447 2.84741C3.8705 2.84512 3.82612 2.84375 3.78125 2.84375C1.71353 2.84375 0 4.52603 0 6.59375C0 8.66147 1.71353 10.3438 3.78125 10.3438H5.65625V8C5.65625 7.22456 6.28706 6.59375 7.0625 6.59375H8.9375C9.71294 6.59375 10.3438 7.22456 10.3438 8V10.3438H13.1562C14.7072 10.3438 16 9.08216 16 7.53125C16 5.96478 14.6856 4.68031 13.1091 4.71922Z" fill="white"/>
</svg>
