<svg width="16" height="16" viewBox="0 0 16 16" fill="none" xmlns="http://www.w3.org/2000/svg">
<path d="M15.8476 8.25048L13.6414 6.0443C13.5439 5.94673 13.4115 5.89189 13.2735 5.89189C13.1355 5.89189 13.0032 5.9467 12.9056 6.0443L10.6994 8.25048L7.7198 11.2301C7.37102 11.5789 6.93171 11.786 6.44927 11.8291C6.44793 11.8292 6.44655 11.8293 6.44521 11.8295C5.82302 11.8901 5.21315 11.6715 4.77181 11.2302C4.23306 10.6914 4.03197 9.90119 4.2465 9.16732C4.35484 8.81682 4.52668 8.52729 4.77181 8.28213L7.75149 5.30249L9.95764 3.0963C10.1608 2.89315 10.1608 2.56368 9.95764 2.36046L7.75152 0.154343C7.5484 -0.0488436 7.21893 -0.0488436 7.01568 0.154343L4.8095 2.36049L1.82985 5.34017C1.08357 6.08642 0.556259 6.97654 0.262541 7.98573C-0.395707 10.1869 0.204635 12.5571 1.82979 14.1721C2.99453 15.3461 4.57487 15.9966 6.22399 15.9966C6.38524 15.9966 6.54724 15.9904 6.70952 15.9778C8.20024 15.8714 9.6038 15.2301 10.6618 14.1721L13.6414 11.1924L15.8476 8.98629C16.0508 8.78313 16.0508 8.45366 15.8476 8.25048ZM7.38358 1.25809L8.85389 2.7284L7.38358 4.19874L5.91327 2.72837L7.38358 1.25809ZM13.2736 10.0887L12.5384 9.35357L11.8032 8.61845L13.2735 7.14811L14.7438 8.61845L13.2736 10.0887Z" fill="white"/>
</svg>
