<svg width="19" height="15" viewBox="0 0 19 15" fill="none" xmlns="http://www.w3.org/2000/svg">
<path d="M17 6L17.7071 6.70711L18.4142 6L17.7071 5.29289L17 6ZM0 14C-4.82823e-08 14.5523 0.447716 15 1 15C1.55229 15 2 14.5523 2 14L0 14ZM12.7071 11.7071L17.7071 6.70711L16.2929 5.29289L11.2929 10.2929L12.7071 11.7071ZM17.7071 5.29289L12.7071 0.292893L11.2929 1.70711L16.2929 6.70711L17.7071 5.29289ZM17 5L7 5L7 7L17 7L17 5ZM1.74846e-07 12L0 14L2 14L2 12L1.74846e-07 12ZM7 5C3.13401 5 5.12821e-07 8.13401 1.74846e-07 12L2 12C2 9.23858 4.23858 7 7 7L7 5Z" fill="#CCD2E3"/>
</svg>
